# xmcd CD database file
#
# Track frame offsets:
#	150
#	11830
#	25114
#	38715
#	56685
#	71036
#	88632
#	105035
#	116238
#	131413
#	142406
#	154202
#
# Disc length: 2330 seconds
#
# Revision: 3
# Processed by: cddbd v1.5.2PL0 Copyright (c) Steve Scherf et al.
# Submitted via: CDex 1.51
#
DISCID=a309180c
DTITLE=Carolina Chocolate Drops - Genuine Negro Jig
DYEAR=2010
DGENRE=Country
TTITLE0=Peace Behind The Bridge
TTITLE1=Trouble In Your Mind
TTITLE2=Your Baby Ain't Sweet Like Mine
TTITLE3=Hit Up 'Em Style
TTITLE4=Cornbread And Butterbeans
TTITLE5=Snowden's Jig
TTITLE6=Why Don't You Do Right
TTITLE7=Cindy Gal
TTITLE8=Kissin' And Cussin'
TTITLE9=Sandy Boy
TTITLE10=Reynadine
TTITLE11=Trampled Rose
EXTD=YEAR: 2010
EXTT0=
EXTT1=
EXTT2=
EXTT3=
EXTT4=
EXTT5=
EXTT6=
EXTT7=
EXTT8=
EXTT9=
EXTT10=
EXTT11=
PLAYORDER=
